dataset
version=1
nRows=14
nColumns=39
inDegrees=no
endheader
time	sternoclavicular_r2	sternoclavicular_r3	unrotscap_r3	unrotscap_r2	acromioclavicular_r2	acromioclavicular_r3	acromioclavicular_r1	unrothum_r1	unrothum_r3	unrothum_r2	elv_angle	shoulder_elv	shoulder1_r2	shoulder_rot	elbow_flexion	pro_sup	deviation	flexion	cmc_abduction	cmc_flexion	mp_flexion	ip_flexion	mcp2_flexion	mcp2_abduction	pm2_flexion	md2_flexion	mcp3_flexion	mcp3_abduction	pm3_flexion	md3_flexion	mcp4_flexion	mcp4_abduction	pm4_flexion	md4_flexion	mcp5_flexion	mcp5_abduction	pm5_flexion	md5_flexion
4.750000	-0.019985	-0.205540	0.044502	0.139594	0.127043	0.064388	-0.013174	-0.017442	0.080309	0.140441	0.142276	0.027437	0.146525	0.146525	1.211628	1.305599	0.000000	0.000000	0.000000	0.000000	0.000000	0.000000	0.000000	0.000000	0.000000	0.000000	0.000000	0.000000	0.000000	0.000000	0.000000	0.000000	0.000000	0.000000	0.000000	0.000000	0.000000	0.000000
4.755000	-0.019792	-0.205602	0.044779	0.138415	0.125927	0.063944	-0.013673	-0.017985	0.079438	0.139401	0.140923	0.027437	0.146525	0.146525	1.213255	1.305386	0.000000	0.000000	0.000000	0.000000	0.000000	0.000000	0.000000	0.000000	0.000000	0.000000	0.000000	0.000000	0.000000	0.000000	0.000000	0.000000	0.000000	0.000000	0.000000	0.000000	0.000000	0.000000
4.760000	-0.019599	-0.205669	0.045064	0.137216	0.124787	0.063506	-0.014176	-0.018531	0.078562	0.138338	0.139547	0.027437	0.146525	0.146525	1.214825	1.305178	0.000000	0.000000	0.000000	0.000000	0.000000	0.000000	0.000000	0.000000	0.000000	0.000000	0.000000	0.000000	0.000000	0.000000	0.000000	0.000000	0.000000	0.000000	0.000000	0.000000	0.000000	0.000000
4.765000	-0.019404	-0.205741	0.045356	0.135996	0.123627	0.063077	-0.014683	-0.019078	0.077682	0.137253	0.138149	0.027437	0.146525	0.146525	1.216332	1.304975	0.000000	0.000000	0.000000	0.000000	0.000000	0.000000	0.000000	0.000000	0.000000	0.000000	0.000000	0.000000	0.000000	0.000000	0.000000	0.000000	0.000000	0.000000	0.000000	0.000000	0.000000	0.000000
4.770000	-0.019208	-0.205818	0.045655	0.134760	0.122447	0.062656	-0.015193	-0.019626	0.076801	0.136148	0.136731	0.027437	0.146525	0.146525	1.217769	1.304778	0.000000	0.000000	0.000000	0.000000	0.000000	0.000000	0.000000	0.000000	0.000000	0.000000	0.000000	0.000000	0.000000	0.000000	0.000000	0.000000	0.000000	0.000000	0.000000	0.000000	0.000000	0.000000
4.775000	-0.019012	-0.205900	0.045960	0.133507	0.121248	0.062245	-0.015704	-0.020173	0.075920	0.135023	0.135296	0.027437	0.146525	0.146525	1.219129	1.304587	0.000000	0.000000	0.000000	0.000000	0.000000	0.000000	0.000000	0.000000	0.000000	0.000000	0.000000	0.000000	0.000000	0.000000	0.000000	0.000000	0.000000	0.000000	0.000000	0.000000	0.000000	0.000000
4.780000	-0.018815	-0.205987	0.046271	0.132239	0.120033	0.061846	-0.016216	-0.020719	0.075041	0.133881	0.133844	0.027437	0.146525	0.146525	1.220406	1.304403	0.000000	0.000000	0.000000	0.000000	0.000000	0.000000	0.000000	0.000000	0.000000	0.000000	0.000000	0.000000	0.000000	0.000000	0.000000	0.000000	0.000000	0.000000	0.000000	0.000000	0.000000	0.000000
4.785000	-0.018619	-0.206077	0.046589	0.130959	0.118802	0.061460	-0.016727	-0.021262	0.074165	0.132722	0.132379	0.027437	0.146525	0.146525	1.221594	1.304225	0.000000	0.000000	0.000000	0.000000	0.000000	0.000000	0.000000	0.000000	0.000000	0.000000	0.000000	0.000000	0.000000	0.000000	0.000000	0.000000	0.000000	0.000000	0.000000	0.000000	0.000000	0.000000
4.790000	-0.018424	-0.206172	0.046911	0.129669	0.117558	0.061087	-0.017236	-0.021802	0.073295	0.131549	0.130901	0.027437	0.146525	0.146525	1.222687	1.304055	0.000000	0.000000	0.000000	0.000000	0.000000	0.000000	0.000000	0.000000	0.000000	0.000000	0.000000	0.000000	0.000000	0.000000	0.000000	0.000000	0.000000	0.000000	0.000000	0.000000	0.000000	0.000000
4.795000	-0.018229	-0.206271	0.047239	0.128369	0.116302	0.060728	-0.017744	-0.022337	0.072432	0.130362	0.129415	0.027437	0.146525	0.146525	1.223677	1.303892	0.000000	0.000000	0.000000	0.000000	0.000000	0.000000	0.000000	0.000000	0.000000	0.000000	0.000000	0.000000	0.000000	0.000000	0.000000	0.000000	0.000000	0.000000	0.000000	0.000000	0.000000	0.000000
4.800000	-0.018036	-0.206373	0.047571	0.127063	0.115035	0.060386	-0.018247	-0.022867	0.071578	0.129163	0.127921	0.027437	0.146525	0.146525	1.224558	1.303737	0.000000	0.000000	0.000000	0.000000	0.000000	0.000000	0.000000	0.000000	0.000000	0.000000	0.000000	0.000000	0.000000	0.000000	0.000000	0.000000	0.000000	0.000000	0.000000	0.000000	0.000000	0.000000
4.805000	-0.017845	-0.206479	0.047907	0.125752	0.113761	0.060060	-0.018746	-0.023390	0.070735	0.127955	0.126423	0.027437	0.146525	0.146525	1.225326	1.303590	0.000000	0.000000	0.000000	0.000000	0.000000	0.000000	0.000000	0.000000	0.000000	0.000000	0.000000	0.000000	0.000000	0.000000	0.000000	0.000000	0.000000	0.000000	0.000000	0.000000	0.000000	0.000000
4.810000	-0.017655	-0.206588	0.048247	0.124437	0.112480	0.059752	-0.019239	-0.023906	0.069905	0.126738	0.124921	0.027437	0.146525	0.146525	1.225973	1.303452	0.000000	0.000000	0.000000	0.000000	0.000000	0.000000	0.000000	0.000000	0.000000	0.000000	0.000000	0.000000	0.000000	0.000000	0.000000	0.000000	0.000000	0.000000	0.000000	0.000000	0.000000	0.000000
4.815000	-0.017468	-0.206699	0.048590	0.123122	0.111194	0.059463	-0.019725	-0.024414	0.069088	0.125514	0.123420	0.027437	0.146525	0.146525	1.226495	1.303323	0.000000	0.000000	0.000000	0.000000	0.000000	0.000000	0.000000	0.000000	0.000000	0.000000	0.000000	0.000000	0.000000	0.000000	0.000000	0.000000	0.000000	0.000000	0.000000	0.000000	0.000000	0.000000
